<mxfile host="app.diagrams.net" modified="2024-04-27T14:21:54.242Z" agent="Mozilla/5.0 (Windows NT 10.0; Win64; x64) AppleWebKit/537.36 (KHTML, like Gecko) Chrome/124.0.0.0 Safari/537.36 Edg/124.0.0.0" etag="UDq8vECrP-dJHNlOGBEC" version="24.3.0" type="device">
  <diagram name="Page-1" id="CZnWD2TztaOOyiLP18rt">
    <mxGraphModel dx="1786" dy="793" grid="0" gridSize="10" guides="1" tooltips="1" connect="1" arrows="1" fold="1" page="0" pageScale="1" pageWidth="850" pageHeight="1100" math="0" shadow="0">
      <root>
        <mxCell id="0" />
        <mxCell id="1" parent="0" />
        <mxCell id="CMimWmpDLu9Ur75W0AAS-1" value="Data Engineer 1" style="shape=umlActor;verticalLabelPosition=bottom;verticalAlign=top;html=1;outlineConnect=0;" vertex="1" parent="1">
          <mxGeometry x="-71" y="481" width="30" height="60" as="geometry" />
        </mxCell>
        <mxCell id="CMimWmpDLu9Ur75W0AAS-3" value="Data Engineer 1" style="shape=umlActor;verticalLabelPosition=bottom;verticalAlign=top;html=1;outlineConnect=0;" vertex="1" parent="1">
          <mxGeometry x="288" y="485" width="30" height="60" as="geometry" />
        </mxCell>
        <mxCell id="CMimWmpDLu9Ur75W0AAS-4" value="" style="image;sketch=0;aspect=fixed;html=1;points=[];align=center;fontSize=12;image=img/lib/mscae/Databricks.svg;" vertex="1" parent="1">
          <mxGeometry x="44" y="179" width="50" height="48" as="geometry" />
        </mxCell>
        <mxCell id="CMimWmpDLu9Ur75W0AAS-5" value="" style="image;aspect=fixed;html=1;points=[];align=center;fontSize=12;image=img/lib/azure2/devops/Azure_DevOps.svg;" vertex="1" parent="1">
          <mxGeometry x="172" y="159" width="64" height="64" as="geometry" />
        </mxCell>
        <mxCell id="CMimWmpDLu9Ur75W0AAS-9" value="Git&lt;div&gt;&lt;b&gt;&lt;font style=&quot;font-size: 14px;&quot;&gt;Main&lt;/font&gt;&lt;/b&gt;&lt;/div&gt;" style="verticalLabelPosition=bottom;html=1;verticalAlign=top;align=center;strokeColor=none;fillColor=#00BEF2;shape=mxgraph.azure.git_repository;" vertex="1" parent="1">
          <mxGeometry x="83" y="323" width="50" height="50" as="geometry" />
        </mxCell>
        <mxCell id="CMimWmpDLu9Ur75W0AAS-24" value="" style="endArrow=classic;html=1;rounded=0;verticalAlign=top;" edge="1" parent="1">
          <mxGeometry width="50" height="50" relative="1" as="geometry">
            <mxPoint x="104" y="417" as="sourcePoint" />
            <mxPoint x="-9" y="522" as="targetPoint" />
            <Array as="points">
              <mxPoint x="101" y="524" />
            </Array>
          </mxGeometry>
        </mxCell>
        <mxCell id="CMimWmpDLu9Ur75W0AAS-25" value="" style="endArrow=classic;html=1;rounded=0;verticalAlign=top;" edge="1" parent="1">
          <mxGeometry width="50" height="50" relative="1" as="geometry">
            <mxPoint x="114" y="417" as="sourcePoint" />
            <mxPoint x="262" y="527" as="targetPoint" />
            <Array as="points">
              <mxPoint x="111" y="524" />
            </Array>
          </mxGeometry>
        </mxCell>
        <mxCell id="CMimWmpDLu9Ur75W0AAS-26" value="" style="endArrow=classic;html=1;rounded=0;verticalAlign=top;" edge="1" parent="1">
          <mxGeometry width="50" height="50" relative="1" as="geometry">
            <mxPoint x="62" y="353" as="sourcePoint" />
            <mxPoint x="-51" y="458" as="targetPoint" />
            <Array as="points">
              <mxPoint x="-48" y="353" />
            </Array>
          </mxGeometry>
        </mxCell>
      </root>
    </mxGraphModel>
  </diagram>
</mxfile>
